<svg width="1152" height="471" viewBox="0 0 1152 471" fill="none" xmlns="http://www.w3.org/2000/svg">
<path d="M40.3767 336.438V348.126H-72.3739V336.438C-72.3739 333.646 -70.8897 330.719 -68.6478 328.477C-66.4059 326.235 -63.4792 324.751 -60.6863 324.751H-44.4365C-41.918 324.751 -39.8741 322.707 -39.8741 320.188C-39.8741 317.67 -41.918 315.626 -44.4365 315.626C-47.2293 315.626 -50.156 314.142 -52.3979 311.9C-54.6398 309.658 -56.124 306.731 -56.124 303.939C-56.124 300.998 -55.2634 297.727 -53.8737 294.113C-52.4849 290.501 -50.5851 286.588 -48.5332 282.363L-48.5328 282.362L-48.5327 282.362L-48.5199 282.335C-42.8798 270.731 -35.8118 256.187 -35.8118 238.939C-35.8118 233.565 -36.4852 225.156 -37.8018 213.961L-37.8019 213.961C-38.0979 211.462 -40.3567 209.641 -42.874 209.965C-45.373 210.263 -47.1591 212.53 -46.8674 215.032L-46.8673 215.033C-45.6041 225.751 -44.9369 234.014 -44.9369 238.939C-44.9369 254.066 -51.1779 266.931 -56.7371 278.375L-56.7787 278.46C-61.2872 287.74 -65.2496 295.895 -65.2496 303.94C-65.2496 308.133 -63.7038 312.218 -61.2024 315.635C-66.395 315.791 -71.3868 318.289 -75.1125 322.015C-78.9612 325.863 -81.5 331.063 -81.5 336.44V352.69C-81.5 355.208 -79.4561 357.252 -76.9376 357.252H44.9377C47.4561 357.252 49.5 355.208 49.5 352.69V336.44C49.5007 331.063 46.9623 325.862 43.1138 322.013C39.3838 318.283 34.3845 315.783 29.1852 315.633C31.691 312.215 33.252 308.137 33.252 303.938C33.252 295.894 29.29 287.74 24.7818 278.46L24.7395 278.373C19.1803 266.929 12.9393 254.065 12.9393 238.938C12.9393 218.831 15.0271 207.061 16.119 202.273C21.3106 200.69 25.1269 195.903 25.1269 190.188C25.1269 185.205 22.2287 180.913 18.049 178.838L28.3468 141.078C31.238 139.688 33.252 136.737 33.252 133.312C33.252 128.555 29.3843 124.687 24.6269 124.687C19.8699 124.687 16.0017 128.555 16.0017 133.312C16.0017 133.604 16.0257 133.886 16.06 134.158C6.90404 134.919 -0.812798 132.295 -8.68958 125.682C-7.86055 124.36 -7.3734 122.8 -7.3734 121.125C-7.3734 116.368 -11.2416 112.5 -15.9986 112.5C-20.7555 112.5 -24.6238 116.368 -24.6238 121.125C-24.6238 122.8 -24.1361 124.36 -23.3074 125.683C-31.1842 132.295 -38.9007 134.919 -48.0571 134.158C-48.0229 133.886 -47.9988 133.604 -47.9988 133.313C-47.9988 128.556 -51.8665 124.688 -56.624 124.688C-61.3809 124.688 -65.2492 128.555 -65.2492 133.313C-65.2492 136.737 -63.2355 139.688 -60.3439 141.079L-50.0501 178.813C-54.2351 180.888 -57.124 185.208 -57.124 190.188C-57.124 197.183 -51.4319 202.876 -44.4365 202.876H-3.81104C-1.29258 202.876 0.751305 200.832 0.751305 198.313C0.751305 195.795 -1.29258 193.751 -3.81104 193.751H-44.436C-46.3983 193.751 -47.9983 192.151 -47.9983 190.188C-47.9983 188.226 -46.3983 186.626 -44.436 186.626C-43.0117 186.626 -41.6752 185.959 -40.8099 184.834L-40.8086 184.832C-39.9466 183.702 -39.6594 182.237 -40.033 180.864L-40.0331 180.863L-50.3152 143.165C-37.5135 144.606 -26.588 140.85 -15.9984 131.457C-5.40533 140.846 5.51952 144.614 18.3179 143.165L8.9534 177.501H-28.1861C-30.7046 177.501 -32.7485 179.545 -32.7485 182.063C-32.7485 184.582 -30.7046 186.626 -28.1861 186.626H12.4388C14.4012 186.626 16.0012 188.226 16.0012 190.188C16.0012 192.15 14.4012 193.75 12.4388 193.75C12.3366 193.75 12.2535 193.775 12.2206 193.785C11.9131 193.804 11.626 193.883 11.391 193.947C11.3576 193.956 11.3251 193.965 11.2939 193.973C11.2602 193.982 11.2189 193.991 11.1721 194.001C10.9984 194.039 10.7496 194.094 10.5403 194.19C10.2843 194.308 10.0608 194.479 9.88794 194.612C9.85139 194.64 9.81711 194.666 9.78526 194.69C9.75503 194.712 9.71647 194.738 9.67245 194.768C9.519 194.873 9.29917 195.023 9.13441 195.199C9.01479 195.324 8.92498 195.458 8.85361 195.573C8.8166 195.633 8.78915 195.679 8.76423 195.721C8.73194 195.776 8.70391 195.823 8.66484 195.883C8.64667 195.91 8.62733 195.939 8.60718 195.97C8.47943 196.162 8.31848 196.404 8.20924 196.68C8.20208 196.69 8.18742 196.712 8.17291 196.736C8.15605 196.764 8.13547 196.802 8.11735 196.849L8.11325 196.86L8.10964 196.87C7.9156 197.448 3.81365 210.124 3.81365 238.939C3.81365 256.187 10.8817 270.731 16.5219 282.335L16.5346 282.362C18.5867 286.588 20.4867 290.501 21.8756 294.113C23.2653 297.728 24.1259 300.999 24.1259 303.939C24.1259 306.731 22.6417 309.658 20.3998 311.9C18.1579 314.142 15.2312 315.626 12.4384 315.626H-28.1861C-30.7046 315.626 -32.7485 317.67 -32.7485 320.188C-32.7485 322.707 -30.7046 324.751 -28.1861 324.751H28.6892C31.482 324.751 34.4088 326.235 36.6507 328.477C38.8925 330.719 40.3767 333.646 40.3767 336.438Z" stroke="white" stroke-opacity="0.09"/>
<path d="M133.558 161.846L133.556 161.848C132.335 163.436 130.449 164.377 128.44 164.377C125.444 164.377 123.002 166.818 123.002 169.814C123.002 172.809 125.444 175.251 128.44 175.251H187.815C191.368 175.251 194.252 178.135 194.252 181.688C194.252 185.242 191.368 188.126 187.815 188.126H128.439C118.342 188.126 110.126 179.91 110.126 169.813C110.126 162.558 114.374 156.273 120.507 153.311L105.384 97.875C101.184 95.8992 98.2512 91.637 98.2512 86.6878C98.2512 79.8621 103.801 74.3125 110.626 74.3125C117.452 74.3125 123.002 79.8628 123.002 86.6878C123.002 87.1863 122.952 87.6677 122.886 88.1326C136.503 89.3228 147.947 85.4355 159.623 75.5824C158.368 73.6485 157.627 71.3495 157.627 68.8753C157.627 62.0495 163.177 56.5 170.002 56.5C176.827 56.5 182.377 62.0495 182.377 68.8746C182.377 71.3493 181.636 73.6483 180.381 75.5818C192.057 85.4349 203.502 89.3228 217.118 88.1319C217.052 87.667 217.002 87.1856 217.002 86.6871C217.002 79.8614 222.553 74.3118 229.378 74.3118C236.203 74.3118 241.753 79.8621 241.753 86.6871C241.753 91.6363 238.82 95.8991 234.62 97.8743L219.491 153.347C225.617 156.311 229.878 162.556 229.878 169.813C229.878 178.106 224.308 185.048 216.748 187.294C215.157 194.225 212.065 211.475 212.065 241.063C212.065 263.232 221.212 282.08 229.335 298.8L229.379 298.89C235.982 312.483 241.753 324.36 241.753 336.063C241.753 342.29 239.382 348.342 235.588 353.377C243.277 353.462 250.709 357.119 256.234 362.644C261.824 368.235 265.501 375.779 265.5 383.566V407.316C265.5 410.869 262.616 413.753 259.063 413.753H80.9373C77.3839 413.753 74.5 410.869 74.5 407.316V383.566C74.5 375.78 78.1778 368.236 83.768 362.646C89.286 357.128 96.7074 353.473 104.387 353.38C100.599 348.348 98.2505 342.284 98.2505 336.065C98.2505 324.361 104.022 312.483 110.626 298.89L110.669 298.802C118.791 282.082 127.938 263.235 127.938 241.065C127.938 233.852 126.962 221.765 125.115 206.098L125.115 206.097C124.704 202.565 127.226 199.366 130.753 198.946C134.301 198.49 137.489 201.058 137.907 204.585L137.907 204.585C139.831 220.946 140.814 233.225 140.814 241.064C140.814 266.221 130.503 287.436 122.256 304.404L122.245 304.428L122.245 304.428L122.241 304.436C119.244 310.607 116.464 316.333 114.431 321.621C112.396 326.913 111.126 331.725 111.126 336.064C111.126 340.224 113.333 344.557 116.64 347.863C119.946 351.17 124.279 353.377 128.439 353.377C131.992 353.377 134.876 356.261 134.876 359.814C134.876 363.367 131.992 366.251 128.439 366.251H104.689C100.529 366.251 96.1964 368.458 92.89 371.765C89.5836 375.071 87.3767 379.404 87.3767 383.564V400.876H252.628V383.564C252.628 379.404 250.421 375.071 247.114 371.765C243.808 368.458 239.475 366.251 235.315 366.251H152.19C148.636 366.251 145.752 363.367 145.752 359.814C145.752 356.261 148.636 353.377 152.19 353.377H211.564C215.723 353.377 220.057 351.17 223.363 347.863C226.669 344.557 228.876 340.224 228.876 336.064C228.876 331.725 227.607 326.914 225.572 321.621C223.538 316.332 220.758 310.605 217.761 304.433L217.758 304.428L217.758 304.428L217.746 304.403C209.5 287.436 199.189 266.221 199.189 241.064C199.189 198.973 205.181 180.471 205.456 179.653L205.46 179.643L205.464 179.632C205.502 179.532 205.558 179.453 205.576 179.427C205.582 179.419 205.586 179.413 205.588 179.409C205.738 179.021 205.963 178.682 206.155 178.394C206.185 178.349 206.214 178.305 206.242 178.262C206.3 178.173 206.346 178.097 206.396 178.012C206.433 177.95 206.472 177.884 206.521 177.806C206.622 177.643 206.743 177.463 206.902 177.296C207.123 177.06 207.409 176.865 207.633 176.711C207.704 176.663 207.769 176.618 207.823 176.578C207.875 176.54 207.928 176.499 207.984 176.456C208.237 176.262 208.538 176.032 208.886 175.872M133.558 161.846L209.094 176.327M133.558 161.846C134.774 160.25 135.179 158.184 134.652 156.246L134.652 156.246L119.535 100.819C138.381 103.029 154.427 97.5395 170.002 83.6667M133.558 161.846L170.002 83.6667M208.886 175.872L209.094 176.327M208.886 175.872C208.886 175.872 208.885 175.873 208.885 175.873L209.094 176.327M208.886 175.872C209.166 175.743 209.489 175.672 209.743 175.616C209.819 175.6 209.889 175.584 209.949 175.569M209.094 176.327C209.32 176.222 209.562 176.169 209.805 176.115C209.895 176.095 209.985 176.076 210.074 176.053M209.949 175.569C209.948 175.569 209.946 175.57 209.945 175.57L210.074 176.053M209.949 175.569C209.997 175.556 210.046 175.543 210.096 175.529C210.449 175.433 210.854 175.322 211.286 175.3M209.949 175.569C209.95 175.569 209.951 175.569 209.952 175.568L210.074 176.053M210.074 176.053L211.286 175.3M211.286 175.3C211.26 175.308 211.281 175.301 211.306 175.299L211.339 175.798L211.318 175.298C211.308 175.299 211.297 175.299 211.286 175.3ZM211.286 175.3C211.291 175.299 211.296 175.297 211.303 175.295C211.339 175.283 211.44 175.251 211.564 175.251C214.56 175.251 217.002 172.809 217.002 169.813C217.002 166.818 214.56 164.376 211.564 164.376H152.19C148.636 164.376 145.752 161.492 145.752 157.939C145.752 154.385 148.636 151.501 152.19 151.501H206.647M211.286 175.3L207.029 152.001M206.647 151.501L206.546 151.87L207.029 152.001M206.647 151.501H207.029V152.001M206.647 151.501L220.469 100.82M207.029 152.001L221.005 100.754C220.826 100.777 220.648 100.799 220.469 100.82M220.469 100.82L220.611 100.299M220.469 100.82C201.629 103.041 185.582 97.5338 170.002 83.6667M170.002 83.6667C170.114 83.5675 170.225 83.4678 170.336 83.3677L220.611 100.299M220.611 100.299C220.79 100.278 220.969 100.255 221.148 100.232L220.611 100.299Z" stroke="white" stroke-opacity="0.09"/>
<path d="M372.741 150.353L372.74 150.354C371.34 152.175 369.179 153.252 366.878 153.252C363.365 153.252 360.503 156.115 360.503 159.627C360.503 163.139 363.365 166.001 366.878 166.001H435.627C439.698 166.001 443.002 169.305 443.002 173.376C443.002 177.447 439.698 180.751 435.627 180.751H366.877C355.229 180.751 345.752 171.273 345.752 159.626C345.752 151.234 350.679 143.966 357.786 140.561L340.248 76.2729C335.393 74.0044 332.001 69.0869 332.001 63.3754C332.001 55.5155 338.393 49.125 346.252 49.125C354.112 49.125 360.502 55.5163 360.502 63.3754C360.502 63.977 360.439 64.5577 360.357 65.1195C376.204 66.5248 389.513 62.0058 403.089 50.5317C401.621 48.2925 400.752 45.624 400.752 42.7503C400.752 34.8904 407.143 28.5 415.002 28.5C422.861 28.5 429.253 34.8904 429.253 42.7495C429.253 45.6238 428.385 48.2924 426.916 50.531C440.492 62.0051 453.802 66.5247 469.647 65.1188C469.566 64.5569 469.503 63.9763 469.503 63.3745C469.503 55.5146 475.894 49.1242 483.753 49.1242C491.613 49.1242 498.003 55.5155 498.003 63.3745C498.003 69.086 494.611 74.0043 489.756 76.2722L472.212 140.603C479.311 144.011 484.253 151.231 484.253 159.625C484.253 169.208 477.807 177.227 469.063 179.804C467.222 187.806 463.628 207.797 463.628 242.125C463.628 267.816 474.229 289.655 483.632 309.014L483.677 309.105C491.328 324.854 498.003 338.593 498.003 352.126C498.003 359.367 495.226 366.407 490.786 372.251C499.72 372.301 508.371 376.536 514.794 382.96C521.254 389.421 525.501 398.137 525.5 407.129V434.629C525.5 438.699 522.196 442.003 518.125 442.003H311.875C307.804 442.003 304.5 438.699 304.5 434.629V407.129C304.5 398.138 308.747 389.423 315.208 382.962C321.623 376.547 330.261 372.314 339.184 372.254C334.752 366.414 332.001 359.361 332.001 352.128C332.001 338.594 338.676 324.854 346.328 309.105L346.372 309.016C355.776 289.658 366.376 267.819 366.376 242.128C366.376 233.771 365.245 219.771 363.107 201.631L363.107 201.63C362.635 197.583 365.524 193.918 369.565 193.437C373.629 192.915 377.282 195.855 377.761 199.897L377.761 199.897C379.989 218.841 381.126 233.055 381.126 242.127C381.126 271.237 369.194 295.788 359.645 315.438L359.633 315.461L359.628 315.473C356.159 322.617 352.938 329.249 350.583 335.375C348.225 341.506 346.752 347.088 346.752 352.127C346.752 356.97 349.32 362.006 353.159 365.845C356.997 369.684 362.034 372.252 366.877 372.252C370.948 372.252 374.252 375.556 374.252 379.627C374.252 383.697 370.948 387.001 366.877 387.001H339.377C334.534 387.001 329.498 389.57 325.659 393.408C321.82 397.247 319.252 402.283 319.252 407.126V427.251H510.753V407.126C510.753 402.283 508.185 397.247 504.346 393.408C500.507 389.57 495.471 387.001 490.628 387.001H394.377C390.307 387.001 387.003 383.697 387.003 379.627C387.003 375.556 390.307 372.252 394.377 372.252H463.126C467.97 372.252 473.006 369.684 476.844 365.845C480.683 362.006 483.252 356.97 483.252 352.127C483.252 347.089 481.778 341.507 479.42 335.375C477.065 329.248 473.844 322.615 470.374 315.47L470.37 315.461L470.358 315.437C460.809 295.788 448.877 271.237 448.877 242.127C448.877 193.397 455.814 171.982 456.129 171.045L456.133 171.034L456.137 171.023C456.175 170.924 456.23 170.844 456.254 170.809L456.259 170.802C456.27 170.786 456.275 170.777 456.278 170.772C456.448 170.329 456.706 169.942 456.929 169.606C456.964 169.553 456.998 169.502 457.03 169.452C457.098 169.348 457.153 169.257 457.212 169.158C457.254 169.086 457.299 169.01 457.354 168.922C457.47 168.734 457.608 168.531 457.787 168.343C458.036 168.078 458.355 167.86 458.613 167.683C458.698 167.624 458.777 167.571 458.844 167.521C458.905 167.476 458.967 167.428 459.033 167.378C459.326 167.154 459.665 166.894 460.059 166.713M372.741 150.353L460.267 167.168M372.741 150.353C374.135 148.525 374.599 146.157 373.995 143.937L373.995 143.937L356.46 79.6457L372.741 150.353ZM460.059 166.713L460.267 167.168M460.059 166.713C460.058 166.713 460.058 166.714 460.058 166.714L460.267 167.168M460.059 166.713C460.374 166.568 460.735 166.488 461.028 166.424C461.118 166.404 461.202 166.386 461.276 166.367M460.267 167.168C460.529 167.047 460.808 166.985 461.09 166.923C461.194 166.9 461.298 166.877 461.402 166.851M461.276 166.367C461.275 166.367 461.274 166.368 461.272 166.368L461.402 166.851M461.276 166.367C461.332 166.352 461.39 166.336 461.449 166.32C461.86 166.208 462.324 166.081 462.819 166.057M461.276 166.367C461.277 166.367 461.279 166.366 461.28 166.366L461.402 166.851M461.402 166.851L462.819 166.057M462.819 166.057C462.802 166.062 462.816 166.058 462.833 166.057L462.866 166.555L462.846 166.056C462.837 166.056 462.828 166.057 462.819 166.057ZM462.819 166.057C462.825 166.055 462.834 166.053 462.848 166.048C462.89 166.035 462.996 166.001 463.127 166.001C466.639 166.001 469.502 163.138 469.502 159.626C469.502 156.114 466.639 153.251 463.127 153.251H394.377C390.307 153.251 387.003 149.947 387.003 145.876C387.003 141.806 390.307 138.502 394.377 138.502H457.493M462.819 166.057L457.875 139.002M457.493 138.502L457.393 138.87L457.875 139.002M457.493 138.502H457.875V139.002M457.493 138.502L473.545 79.6462M457.875 139.002L474.081 79.5805C473.902 79.603 473.724 79.6249 473.545 79.6462M473.545 79.6462C451.683 82.2548 433.076 75.8779 415.003 59.7715M473.545 79.6462L473.687 79.1255C451.762 81.7947 433.142 75.3921 415.002 59.1005M415.003 59.7715C414.891 59.6722 414.78 59.5725 414.668 59.4725L415.002 59.1005M415.003 59.7715C415.114 59.6721 415.225 59.5724 415.337 59.4724L415.002 59.1005M415.003 59.7715L415.002 59.1005" stroke="white" stroke-opacity="0.09"/>
<path d="M1206.44 151.846L1206.44 151.848C1207.67 153.436 1209.55 154.377 1211.56 154.377C1214.56 154.377 1217 156.818 1217 159.814C1217 162.809 1214.56 165.251 1211.56 165.251H1152.19C1148.63 165.251 1145.75 168.135 1145.75 171.688C1145.75 175.242 1148.63 178.126 1152.19 178.126H1211.56C1221.66 178.126 1229.87 169.91 1229.87 159.813C1229.87 152.558 1225.63 146.273 1219.49 143.311L1234.62 87.875C1238.82 85.8992 1241.75 81.637 1241.75 76.6878C1241.75 69.8621 1236.2 64.3125 1229.37 64.3125C1222.55 64.3125 1217 69.8628 1217 76.6878C1217 77.1863 1217.05 77.6677 1217.11 78.1326C1203.5 79.3228 1192.05 75.4355 1180.38 65.5824C1181.63 63.6485 1182.37 61.3495 1182.37 58.8753C1182.37 52.0495 1176.82 46.5 1170 46.5C1163.17 46.5 1157.62 52.0495 1157.62 58.8746C1157.62 61.3493 1158.36 63.6483 1159.62 65.5818C1147.94 75.4349 1136.5 79.3228 1122.88 78.1319C1122.95 77.667 1123 77.1856 1123 76.6871C1123 69.8614 1117.45 64.3118 1110.62 64.3118C1103.8 64.3118 1098.25 69.8621 1098.25 76.6871C1098.25 81.6363 1101.18 85.8991 1105.38 87.8743L1120.51 143.347C1114.38 146.311 1110.12 152.556 1110.12 159.813C1110.12 168.106 1115.69 175.048 1123.25 177.294C1124.84 184.225 1127.93 201.475 1127.93 231.063C1127.93 253.232 1118.79 272.08 1110.67 288.8L1110.62 288.89C1104.02 302.483 1098.25 314.36 1098.25 326.063C1098.25 332.29 1100.62 338.342 1104.41 343.377C1096.72 343.462 1089.29 347.119 1083.77 352.644C1078.18 358.235 1074.5 365.779 1074.5 373.566V397.316C1074.5 400.869 1077.38 403.753 1080.94 403.753H1259.06C1262.62 403.753 1265.5 400.869 1265.5 397.316V373.566C1265.5 365.78 1261.82 358.236 1256.23 352.646C1250.71 347.128 1243.29 343.473 1235.61 343.38C1239.4 338.348 1241.75 332.284 1241.75 326.065C1241.75 314.361 1235.98 302.483 1229.37 288.89L1229.33 288.802C1221.21 272.082 1212.06 253.235 1212.06 231.065C1212.06 223.852 1213.04 211.765 1214.88 196.098L1214.88 196.097C1215.3 192.565 1212.77 189.366 1209.25 188.946C1205.7 188.49 1202.51 191.058 1202.09 194.585L1202.09 194.585C1200.17 210.946 1199.19 223.225 1199.19 231.064C1199.19 256.221 1209.5 277.436 1217.74 294.404L1217.76 294.428L1217.76 294.428L1217.76 294.436C1220.76 300.607 1223.54 306.333 1225.57 311.621C1227.6 316.913 1228.87 321.725 1228.87 326.064C1228.87 330.224 1226.67 334.557 1223.36 337.863C1220.05 341.17 1215.72 343.377 1211.56 343.377C1208.01 343.377 1205.12 346.261 1205.12 349.814C1205.12 353.367 1208.01 356.251 1211.56 356.251H1235.31C1239.47 356.251 1243.8 358.458 1247.11 361.765C1250.42 365.071 1252.62 369.404 1252.62 373.564V390.876H1087.37V373.564C1087.37 369.404 1089.58 365.071 1092.89 361.765C1096.19 358.458 1100.53 356.251 1104.69 356.251H1187.81C1191.36 356.251 1194.25 353.367 1194.25 349.814C1194.25 346.261 1191.36 343.377 1187.81 343.377H1128.44C1124.28 343.377 1119.94 341.17 1116.64 337.863C1113.33 334.557 1111.12 330.224 1111.12 326.064C1111.12 321.725 1112.39 316.914 1114.43 311.621C1116.46 306.332 1119.24 300.605 1122.24 294.433L1122.24 294.428L1122.24 294.428L1122.25 294.403C1130.5 277.436 1140.81 256.221 1140.81 231.064C1140.81 188.973 1134.82 170.471 1134.54 169.653L1134.54 169.643L1134.54 169.632C1134.5 169.532 1134.44 169.453 1134.42 169.427C1134.42 169.419 1134.41 169.413 1134.41 169.409C1134.26 169.021 1134.04 168.682 1133.85 168.394C1133.82 168.349 1133.79 168.305 1133.76 168.262C1133.7 168.173 1133.65 168.097 1133.6 168.012C1133.57 167.95 1133.53 167.884 1133.48 167.806C1133.38 167.643 1133.26 167.463 1133.1 167.296C1132.88 167.06 1132.59 166.865 1132.37 166.711C1132.3 166.663 1132.23 166.618 1132.18 166.578C1132.13 166.54 1132.07 166.499 1132.02 166.456C1131.76 166.262 1131.46 166.032 1131.11 165.872M1206.44 151.846L1130.91 166.327M1206.44 151.846C1205.23 150.25 1204.82 148.184 1205.35 146.246L1205.35 146.246L1220.47 90.819C1201.62 93.0294 1185.57 87.5395 1170 73.6667M1206.44 151.846L1170 73.6667M1131.11 165.872L1130.91 166.327M1131.11 165.872C1131.11 165.872 1131.11 165.873 1131.12 165.873L1130.91 166.327M1131.11 165.872C1130.83 165.743 1130.51 165.672 1130.26 165.616C1130.18 165.6 1130.11 165.584 1130.05 165.569M1130.91 166.327C1130.68 166.222 1130.44 166.169 1130.19 166.115C1130.11 166.095 1130.02 166.076 1129.93 166.053M1130.05 165.569C1130.05 165.569 1130.05 165.57 1130.06 165.57L1129.93 166.053M1130.05 165.569C1130 165.556 1129.95 165.543 1129.9 165.529C1129.55 165.433 1129.15 165.322 1128.71 165.3M1130.05 165.569C1130.05 165.569 1130.05 165.569 1130.05 165.568L1129.93 166.053M1129.93 166.053L1128.71 165.3M1128.71 165.3C1128.74 165.308 1128.72 165.301 1128.69 165.299L1128.66 165.798L1128.68 165.298C1128.69 165.299 1128.7 165.299 1128.71 165.3ZM1128.71 165.3C1128.71 165.299 1128.7 165.297 1128.7 165.295C1128.66 165.283 1128.56 165.251 1128.44 165.251C1125.44 165.251 1123 162.809 1123 159.813C1123 156.818 1125.44 154.376 1128.44 154.376H1187.81C1191.36 154.376 1194.25 151.492 1194.25 147.939C1194.25 144.385 1191.36 141.501 1187.81 141.501H1133.35M1128.71 165.3L1132.97 142.001M1133.35 141.501L1133.45 141.87L1132.97 142.001M1133.35 141.501H1132.97V142.001M1133.35 141.501L1119.53 90.8195M1132.97 142.001L1118.99 90.7543C1119.17 90.7768 1119.35 90.7985 1119.53 90.8195M1119.53 90.8195L1119.39 90.2991M1119.53 90.8195C1138.37 93.0413 1154.42 87.5338 1170 73.6667M1170 73.6667C1169.89 73.5675 1169.78 73.4678 1169.66 73.3677L1119.39 90.2991M1119.39 90.2991C1119.21 90.2775 1119.03 90.2552 1118.85 90.2323L1119.39 90.2991Z" stroke="white" stroke-opacity="0.09"/>
<path d="M967.259 140.353L967.26 140.354C968.66 142.175 970.821 143.252 973.122 143.252C976.635 143.252 979.497 146.115 979.497 149.627C979.497 153.139 976.635 156.001 973.122 156.001H904.373C900.302 156.001 896.998 159.305 896.998 163.376C896.998 167.447 900.302 170.751 904.373 170.751H973.123C984.771 170.751 994.248 161.273 994.248 149.626C994.248 141.234 989.321 133.966 982.214 130.561L999.752 66.2729C1004.61 64.0044 1008 59.0869 1008 53.3754C1008 45.5155 1001.61 39.125 993.748 39.125C985.888 39.125 979.498 45.5163 979.498 53.3754C979.498 53.977 979.561 54.5577 979.643 55.1195C963.796 56.5248 950.487 52.0058 936.911 40.5317C938.379 38.2925 939.248 35.624 939.248 32.7503C939.248 24.8904 932.857 18.5 924.998 18.5C917.139 18.5 910.747 24.8904 910.747 32.7495C910.747 35.6238 911.615 38.2924 913.084 40.531C899.508 52.0051 886.198 56.5247 870.353 55.1188C870.434 54.5569 870.497 53.9763 870.497 53.3745C870.497 45.5146 864.106 39.1242 856.247 39.1242C848.387 39.1242 841.997 45.5155 841.997 53.3745C841.997 59.086 845.389 64.0043 850.244 66.2722L867.788 130.603C860.689 134.011 855.747 141.231 855.747 149.625C855.747 159.208 862.193 167.227 870.937 169.804C872.778 177.806 876.372 197.797 876.372 232.125C876.372 257.816 865.771 279.655 856.368 299.014L856.323 299.105C848.672 314.854 841.997 328.593 841.997 342.126C841.997 349.367 844.774 356.407 849.214 362.251C840.28 362.301 831.629 366.536 825.206 372.96C818.746 379.421 814.499 388.137 814.5 397.129V424.629C814.5 428.699 817.804 432.003 821.875 432.003H1028.13C1032.2 432.003 1035.5 428.699 1035.5 424.629V397.129C1035.5 388.138 1031.25 379.423 1024.79 372.962C1018.38 366.547 1009.74 362.314 1000.82 362.254C1005.25 356.414 1008 349.361 1008 342.128C1008 328.594 1001.32 314.854 993.672 299.105L993.628 299.016C984.224 279.658 973.624 257.819 973.624 232.128C973.624 223.771 974.755 209.771 976.893 191.631L976.893 191.63C977.365 187.583 974.476 183.918 970.435 183.437C966.371 182.915 962.718 185.855 962.239 189.897L962.239 189.897C960.011 208.841 958.874 223.055 958.874 232.127C958.874 261.237 970.806 285.788 980.355 305.438L980.367 305.461L980.372 305.473C983.841 312.617 987.062 319.249 989.417 325.375C991.775 331.506 993.248 337.088 993.248 342.127C993.248 346.97 990.68 352.006 986.841 355.845C983.003 359.684 977.966 362.252 973.123 362.252C969.052 362.252 965.748 365.556 965.748 369.627C965.748 373.697 969.052 377.001 973.123 377.001H1000.62C1005.47 377.001 1010.5 379.57 1014.34 383.408C1018.18 387.247 1020.75 392.283 1020.75 397.126V417.251H829.247V397.126C829.247 392.283 831.815 387.247 835.654 383.408C839.493 379.57 844.529 377.001 849.372 377.001H945.623C949.693 377.001 952.997 373.697 952.997 369.627C952.997 365.556 949.693 362.252 945.623 362.252H876.874C872.03 362.252 866.994 359.684 863.156 355.845C859.317 352.006 856.748 346.97 856.748 342.127C856.748 337.089 858.222 331.507 860.58 325.375C862.935 319.248 866.156 312.615 869.626 305.47L869.63 305.461L869.642 305.437C879.191 285.788 891.123 261.237 891.123 232.127C891.123 183.397 884.186 161.982 883.871 161.045L883.867 161.034L883.863 161.023C883.825 160.924 883.77 160.844 883.746 160.809L883.741 160.802C883.73 160.786 883.725 160.777 883.722 160.772C883.552 160.329 883.294 159.942 883.071 159.606C883.036 159.553 883.002 159.502 882.97 159.452C882.902 159.348 882.847 159.257 882.788 159.158C882.746 159.086 882.701 159.01 882.646 158.922C882.53 158.734 882.392 158.531 882.213 158.343C881.964 158.078 881.645 157.86 881.387 157.683C881.302 157.624 881.223 157.571 881.156 157.521C881.095 157.476 881.033 157.428 880.967 157.378C880.674 157.154 880.335 156.894 879.941 156.713M967.259 140.353L879.733 157.168M967.259 140.353C965.865 138.525 965.401 136.157 966.005 133.937L966.005 133.937L983.54 69.6457L967.259 140.353ZM879.941 156.713L879.733 157.168M879.941 156.713C879.942 156.713 879.942 156.714 879.942 156.714L879.733 157.168M879.941 156.713C879.626 156.568 879.265 156.488 878.972 156.424C878.882 156.404 878.798 156.386 878.724 156.367M879.733 157.168C879.471 157.047 879.192 156.985 878.91 156.923C878.806 156.9 878.702 156.877 878.598 156.851M878.724 156.367C878.725 156.367 878.726 156.368 878.728 156.368L878.598 156.851M878.724 156.367C878.668 156.352 878.61 156.336 878.551 156.32C878.14 156.208 877.676 156.081 877.181 156.057M878.724 156.367C878.723 156.367 878.721 156.366 878.72 156.366L878.598 156.851M878.598 156.851L877.181 156.057M877.181 156.057C877.198 156.062 877.184 156.058 877.167 156.057L877.134 156.555L877.154 156.056C877.163 156.056 877.172 156.057 877.181 156.057ZM877.181 156.057C877.175 156.055 877.166 156.053 877.152 156.048C877.11 156.035 877.004 156.001 876.873 156.001C873.361 156.001 870.498 153.138 870.498 149.626C870.498 146.114 873.361 143.251 876.873 143.251H945.623C949.693 143.251 952.997 139.947 952.997 135.876C952.997 131.806 949.693 128.502 945.623 128.502H882.507M877.181 156.057L882.125 129.002M882.507 128.502L882.607 128.87L882.125 129.002M882.507 128.502H882.125V129.002M882.507 128.502L866.455 69.6462M882.125 129.002L865.919 69.5805C866.098 69.603 866.276 69.6249 866.455 69.6462M866.455 69.6462C888.317 72.2548 906.924 65.8779 924.997 49.7715M866.455 69.6462L866.313 69.1255C888.238 71.7947 906.858 65.3921 924.998 49.1005M924.997 49.7715C925.109 49.6722 925.22 49.5725 925.332 49.4725L924.998 49.1005M924.997 49.7715C924.886 49.6721 924.775 49.5724 924.663 49.4724L924.998 49.1005M924.997 49.7715L924.998 49.1005" stroke="white" stroke-opacity="0.09"/>
<path d="M621.924 138.86L621.923 138.861C620.345 140.913 617.91 142.127 615.315 142.127C611.287 142.127 608.003 145.411 608.003 149.439C608.003 153.468 611.287 156.752 615.315 156.752H693.44C698.029 156.752 701.753 160.476 701.753 165.064C701.753 169.652 698.029 173.376 693.44 173.376H615.315C602.117 173.376 591.377 162.636 591.377 149.438C591.377 139.909 596.984 131.658 605.065 127.811L585.113 54.6708C579.603 52.1095 575.752 46.5368 575.752 40.0629C575.752 31.1689 582.984 23.9376 591.877 23.9376C600.771 23.9376 608.002 31.1698 608.002 40.0629C608.002 40.7676 607.926 41.4473 607.828 42.1064C625.906 43.7268 641.078 38.5762 656.555 25.4809C654.873 22.9365 653.877 19.8985 653.877 16.6253C653.877 7.7313 661.11 0.5 670.003 0.5C678.896 0.5 686.128 7.73128 686.128 16.6244C686.128 19.8983 685.133 22.9364 683.451 25.4801C698.927 38.5753 714.101 43.7267 732.177 42.1056C732.08 41.4464 732.003 40.7667 732.003 40.062C732.003 31.1679 739.235 23.9366 748.129 23.9366C757.023 23.9366 764.254 31.1689 764.254 40.062C764.254 46.5358 760.402 52.1095 754.893 54.6699L734.933 127.858C743.005 131.71 748.629 139.906 748.629 149.438C748.629 160.31 741.306 169.406 731.377 172.313C729.287 181.386 725.191 204.117 725.191 243.188C725.191 272.4 737.245 297.231 747.93 319.227L747.975 319.32C756.674 337.226 764.254 352.826 764.254 368.189C764.254 376.445 761.069 384.473 755.983 391.126C766.163 391.14 776.033 395.953 783.354 403.275C790.685 410.607 795.501 420.495 795.5 430.692V461.942C795.5 466.53 791.776 470.254 787.188 470.254H552.812C548.224 470.254 544.5 466.53 544.5 461.942V430.692C544.5 420.496 549.317 410.609 556.648 403.277C563.961 395.965 573.816 391.154 583.983 391.129C578.905 384.481 575.751 376.438 575.751 368.191C575.751 352.827 583.331 337.226 592.031 319.32L592.074 319.23C602.76 297.233 614.814 272.403 614.814 243.191C614.814 233.69 613.528 217.778 611.098 197.163L611.098 197.162C610.566 192.6 613.823 188.47 618.378 187.928C622.957 187.339 627.075 190.652 627.615 195.209L627.615 195.21C630.147 216.736 631.439 232.885 631.439 243.19C631.439 276.254 617.886 304.141 607.033 326.472L607.022 326.494L607.014 326.51C603.073 334.626 599.413 342.165 596.735 349.129C594.055 356.099 592.377 362.452 592.377 368.19C592.377 373.716 595.307 379.456 599.678 383.826C604.049 388.197 609.788 391.127 615.315 391.127C619.903 391.127 623.627 394.851 623.627 399.439C623.627 404.028 619.903 407.752 615.315 407.752H584.065C578.538 407.752 572.799 410.681 568.428 415.052C564.057 419.423 561.127 425.162 561.127 430.689V453.627H778.878V430.689C778.878 425.162 775.949 419.423 771.578 415.052C767.207 410.681 761.467 407.752 755.941 407.752H646.565C641.977 407.752 638.253 404.028 638.253 399.439C638.253 394.851 641.977 391.127 646.565 391.127H724.689C730.216 391.127 735.955 388.197 740.326 383.826C744.697 379.456 747.627 373.716 747.627 368.19C747.627 362.452 745.949 356.1 743.268 349.129C740.59 342.164 736.929 334.623 732.987 326.505L732.982 326.494L732.971 326.472C722.118 304.141 708.565 276.254 708.565 243.19C708.565 187.821 716.447 163.493 716.802 162.436L716.806 162.425L716.81 162.415C716.851 162.309 716.909 162.224 716.936 162.184L716.941 162.177C716.96 162.15 716.967 162.139 716.969 162.135C717.159 161.637 717.448 161.202 717.702 160.818C717.742 160.758 717.781 160.7 717.819 160.642C717.896 160.523 717.96 160.417 718.028 160.303C718.076 160.221 718.127 160.135 718.188 160.038C718.319 159.827 718.472 159.6 718.67 159.392C718.948 159.096 719.3 158.855 719.593 158.654C719.691 158.587 719.783 158.525 719.862 158.466C719.933 158.413 720.006 158.358 720.081 158.3C720.414 158.045 720.792 157.756 721.231 157.554M621.924 138.86L721.44 158.009M621.924 138.86C623.495 136.799 624.018 134.131 623.337 131.628L623.337 131.628L603.384 58.4723L621.924 138.86ZM721.231 157.554L721.44 158.009M721.231 157.554C721.231 157.554 721.231 157.555 721.23 157.555L721.44 158.009M721.231 157.554C721.582 157.392 721.981 157.305 722.313 157.231C722.418 157.208 722.516 157.187 722.604 157.165M721.44 158.009C721.737 157.871 722.055 157.801 722.375 157.731C722.493 157.705 722.611 157.678 722.729 157.649M722.604 157.165C722.603 157.165 722.601 157.166 722.6 157.166L722.729 157.649M722.604 157.165C722.669 157.147 722.734 157.13 722.801 157.111C723.272 156.983 723.793 156.84 724.351 156.814M722.604 157.165C722.605 157.165 722.606 157.164 722.607 157.164L722.729 157.649M722.729 157.649L724.351 156.814M724.351 156.814C724.348 156.815 724.347 156.816 724.347 156.816C724.347 156.816 724.353 156.814 724.36 156.814L724.393 157.313L724.373 156.813C724.366 156.814 724.359 156.814 724.351 156.814ZM724.351 156.814C724.357 156.813 724.37 156.809 724.393 156.802L724.397 156.8C724.447 156.785 724.556 156.751 724.69 156.751C728.719 156.751 732.002 153.467 732.002 149.438C732.002 145.41 728.719 142.126 724.69 142.126H646.565C641.977 142.126 638.253 138.402 638.253 133.814C638.253 129.226 641.977 125.502 646.565 125.502H718.34M724.351 156.814L718.722 126.002M718.34 125.502L718.239 125.87L718.722 126.002M718.34 125.502H718.722V126.002M718.34 125.502L736.621 58.4728M718.722 126.002L737.157 58.4067C736.978 58.4293 736.8 58.4513 736.621 58.4728M736.621 58.4728C711.737 61.4683 690.57 54.222 670.003 35.8762M736.621 58.4728L736.763 57.9519C711.816 61.0082 690.637 53.7364 670.003 35.2051M670.003 35.8762C669.891 35.7768 669.78 35.6771 669.669 35.5771L670.003 35.2051M670.003 35.8762C670.114 35.7768 670.226 35.677 670.337 35.577L670.003 35.2051M670.003 35.8762L670.003 35.2051" stroke="white" stroke-opacity="0.09"/>
</svg>
